<svg width="434" height="127" viewBox="0 0 434 127" fill="none" xmlns="http://www.w3.org/2000/svg">
<path d="M127.945 113.342L110.746 108.19V25.7669C111.421 25.6484 112.36 25.53 113.565 25.4116C114.769 25.2339 115.853 25.1451 116.816 25.1451C122.983 25.1451 127.608 27.336 130.691 31.7177C133.774 36.0994 135.316 41.7542 135.316 48.682C135.316 55.4914 133.678 60.7909 130.402 64.5805C127.126 68.3701 122.26 70.3241 115.805 70.4425L113.203 70.5313L114.938 81.9001C117.828 82.1369 120.02 82.2554 121.513 82.2554C127.969 82.2554 133.822 80.627 139.073 77.3703C144.372 74.0545 148.539 69.5543 151.574 63.8699C154.609 58.1856 156.127 51.8795 156.127 44.9516C156.127 32.7539 152.899 24.2273 146.444 19.3719C139.988 14.4573 130.98 12 119.418 12C112.336 12 105.736 12.3849 99.618 13.1546C93.548 13.9244 86.6109 15.0198 78.8066 16.4409L77.9394 26.9215L90.9466 30.2078V108.99L78.2285 114.585L77 124H126.644L127.945 113.342Z" fill="white"/>
<path d="M245.437 124C257.288 124 267.573 121.365 276.293 116.095C285.013 110.766 291.661 103.69 296.237 94.8676C300.814 85.9857 303.102 76.3933 303.102 66.0904C303.102 50.2215 298.911 37.2836 290.529 27.2768C282.194 17.2699 267.79 12.2665 247.316 12.2665C242.113 12.2665 235.923 12.6809 228.745 13.5099C221.567 14.2797 214.461 15.3455 207.427 16.7074L206.849 27.0991L219.278 30.4742V107.569L206.56 114.585L205.259 124H245.437ZM239.512 26.2109C240.523 26.1517 241.294 26.0629 241.824 25.9445C242.691 25.8261 243.607 25.7669 244.57 25.7669C252.567 25.7669 259.287 27.8985 264.731 32.1618C270.175 36.4251 274.222 41.991 276.871 48.8596C279.521 55.7283 280.846 63.0706 280.846 70.8866C280.846 77.5776 279.786 83.9133 277.666 89.8937C275.546 95.815 271.981 100.73 266.971 104.638C262.009 108.486 255.506 110.411 247.46 110.411H239.512V26.2109Z" fill="white"/>
<path d="M366.326 28.6979V108.812L353.897 114.408L353.319 124H398.699L399.566 113.342L386.487 109.079V28.609L399.061 23.9905L400 13.5099H354.041L352.957 23.5464L366.326 28.6979Z" fill="white"/>
</svg>
